<?xml version="1.0" encoding="UTF-8" standalone="no"?>
<!DOCTYPE svg PUBLIC "-//W3C//DTD SVG 1.1//EN"
 "http://www.w3.org/Graphics/SVG/1.1/DTD/svg11.dtd">
<!-- Generated by graphviz version 2.40.1 (20161225.0304)
 -->
<!-- Title: benchmark_log Pages: 1 -->
<svg width="746pt" height="562pt"
 viewBox="0.00 0.00 746.00 562.00" xmlns="http://www.w3.org/2000/svg" xmlns:xlink="http://www.w3.org/1999/xlink">
<g id="graph0" class="graph" transform="scale(1 1) rotate(0) translate(4 558)">
<title>benchmark_log</title>
<polygon fill="#ffffff" stroke="transparent" points="-4,4 -4,-558 742,-558 742,4 -4,4"/>
<!-- benchmark_log -->
<g id="node1" class="node">
<title>benchmark_log</title>
<polygon fill="#efefef" stroke="transparent" points="235,-472.5 235,-507.5 469,-507.5 469,-472.5 235,-472.5"/>
<polygon fill="none" stroke="#000000" points="235,-472.5 235,-507.5 469,-507.5 469,-472.5 235,-472.5"/>
<text text-anchor="start" x="241.859" y="-485.3" font-family="Arial Bold" font-size="18.00" fill="#000000">benchmark_log</text>
<text text-anchor="start" x="364.8872" y="-485.3" font-family="Arial" font-size="14.00" fill="#000000"> </text>
<text text-anchor="start" x="368.7778" y="-485.3" font-family="Arial" font-size="14.00" fill="#666666">[BASE TABLE]</text>
<polygon fill="none" stroke="#000000" points="235,-442.5 235,-472.5 469,-472.5 469,-442.5 235,-442.5"/>
<text text-anchor="start" x="242" y="-453.9" font-family="Arial" font-size="14.00" fill="#000000">id </text>
<text text-anchor="start" x="256.7798" y="-453.9" font-family="Arial" font-size="14.00" fill="#666666">[char(36)]</text>
<polygon fill="none" stroke="#000000" points="235,-412.5 235,-442.5 469,-442.5 469,-412.5 235,-412.5"/>
<text text-anchor="start" x="242" y="-423.9" font-family="Arial" font-size="14.00" fill="#000000">user_id </text>
<text text-anchor="start" x="291.7882" y="-423.9" font-family="Arial" font-size="14.00" fill="#666666">[char(36)]</text>
<polygon fill="none" stroke="#000000" points="235,-382.5 235,-412.5 469,-412.5 469,-382.5 235,-382.5"/>
<text text-anchor="start" x="242" y="-393.9" font-family="Arial" font-size="14.00" fill="#000000">server_id </text>
<text text-anchor="start" x="303.4488" y="-393.9" font-family="Arial" font-size="14.00" fill="#666666">[char(36)]</text>
<polygon fill="none" stroke="#000000" points="235,-352.5 235,-382.5 469,-382.5 469,-352.5 235,-352.5"/>
<text text-anchor="start" x="242" y="-363.9" font-family="Arial" font-size="14.00" fill="#000000">std_out </text>
<text text-anchor="start" x="291.8022" y="-363.9" font-family="Arial" font-size="14.00" fill="#666666">[text]</text>
<polygon fill="none" stroke="#000000" points="235,-322.5 235,-352.5 469,-352.5 469,-322.5 235,-322.5"/>
<text text-anchor="start" x="242" y="-333.9" font-family="Arial" font-size="14.00" fill="#000000">created_at </text>
<text text-anchor="start" x="312.028" y="-333.9" font-family="Arial" font-size="14.00" fill="#666666">[datetime(3)]</text>
<polygon fill="none" stroke="#000000" stroke-width="3" points="233.5,-321.5 233.5,-509.5 470.5,-509.5 470.5,-321.5 233.5,-321.5"/>
</g>
<!-- user -->
<g id="node2" class="node">
<title>user</title>
<polygon fill="#efefef" stroke="transparent" points="142,-132.5 142,-167.5 288,-167.5 288,-132.5 142,-132.5"/>
<polygon fill="none" stroke="#000000" points="142,-132.5 142,-167.5 288,-167.5 288,-132.5 142,-132.5"/>
<text text-anchor="start" x="148.8708" y="-145.3" font-family="Arial Bold" font-size="18.00" fill="#000000">user</text>
<text text-anchor="start" x="183.8754" y="-145.3" font-family="Arial" font-size="14.00" fill="#000000"> </text>
<text text-anchor="start" x="187.766" y="-145.3" font-family="Arial" font-size="14.00" fill="#666666">[BASE TABLE]</text>
<polygon fill="none" stroke="#000000" points="142,-102.5 142,-132.5 288,-132.5 288,-102.5 142,-102.5"/>
<text text-anchor="start" x="149" y="-113.9" font-family="Arial" font-size="14.00" fill="#000000">id </text>
<text text-anchor="start" x="163.7798" y="-113.9" font-family="Arial" font-size="14.00" fill="#666666">[char(36)]</text>
<polygon fill="none" stroke="#000000" points="142,-72.5 142,-102.5 288,-102.5 288,-72.5 142,-72.5"/>
<text text-anchor="start" x="149" y="-83.9" font-family="Arial" font-size="14.00" fill="#000000">name </text>
<text text-anchor="start" x="187.899" y="-83.9" font-family="Arial" font-size="14.00" fill="#666666">[varchar(32)]</text>
</g>
<!-- benchmark_log&#45;&gt;user -->
<g id="edge1" class="edge">
<title>benchmark_log:user_id&#45;&gt;user:id</title>
<path fill="none" stroke="#000000" d="M225.0052,-426.7341C172.9318,-418.0131 214.0151,-336.6471 235,-277 247.4854,-241.5117 275.5146,-246.4883 288,-211 301.7913,-171.7997 329.5556,-117.5 288,-117.5"/>
<polygon fill="#000000" stroke="#000000" points="225.0292,-426.7358 234.6561,-431.9868 230.0146,-427.1179 235,-427.5 235,-427.5 235,-427.5 230.0146,-427.1179 235.3439,-423.0132 225.0292,-426.7358 225.0292,-426.7358"/>
<text text-anchor="start" x="7.445" y="-437.5" font-family="Arial" font-size="10.00" fill="#000000">FOREIGN KEY (user_id) REFERENCES user (id)</text>
</g>
<!-- server_list -->
<g id="node3" class="node">
<title>server_list</title>
<polygon fill="#efefef" stroke="transparent" points="393,-162.5 393,-197.5 586,-197.5 586,-162.5 393,-162.5"/>
<polygon fill="none" stroke="#000000" points="393,-162.5 393,-197.5 586,-197.5 586,-162.5 393,-162.5"/>
<text text-anchor="start" x="399.8763" y="-175.3" font-family="Arial Bold" font-size="18.00" fill="#000000">server_list</text>
<text text-anchor="start" x="481.8699" y="-175.3" font-family="Arial" font-size="14.00" fill="#000000"> </text>
<text text-anchor="start" x="485.7605" y="-175.3" font-family="Arial" font-size="14.00" fill="#666666">[BASE TABLE]</text>
<polygon fill="none" stroke="#000000" points="393,-132.5 393,-162.5 586,-162.5 586,-132.5 393,-132.5"/>
<text text-anchor="start" x="400" y="-143.9" font-family="Arial" font-size="14.00" fill="#000000">id </text>
<text text-anchor="start" x="414.7798" y="-143.9" font-family="Arial" font-size="14.00" fill="#666666">[char(36)]</text>
<polygon fill="none" stroke="#000000" points="393,-102.5 393,-132.5 586,-132.5 586,-102.5 393,-102.5"/>
<text text-anchor="start" x="400" y="-113.9" font-family="Arial" font-size="14.00" fill="#000000">user_id </text>
<text text-anchor="start" x="449.7882" y="-113.9" font-family="Arial" font-size="14.00" fill="#666666">[char(36)]</text>
<polygon fill="none" stroke="#000000" points="393,-72.5 393,-102.5 586,-102.5 586,-72.5 393,-72.5"/>
<text text-anchor="start" x="400" y="-83.9" font-family="Arial" font-size="14.00" fill="#000000">server_number </text>
<text text-anchor="start" x="498.0112" y="-83.9" font-family="Arial" font-size="14.00" fill="#666666">[int(1)]</text>
<polygon fill="none" stroke="#000000" points="393,-42.5 393,-72.5 586,-72.5 586,-42.5 393,-42.5"/>
<text text-anchor="start" x="400" y="-53.9" font-family="Arial" font-size="14.00" fill="#000000">address </text>
<text text-anchor="start" x="453.6816" y="-53.9" font-family="Arial" font-size="14.00" fill="#666666">[varchar(2048)]</text>
</g>
<!-- benchmark_log&#45;&gt;server_list -->
<g id="edge2" class="edge">
<title>benchmark_log:server_id&#45;&gt;server_list:id</title>
<path fill="none" stroke="#000000" d="M479.159,-396.4206C519.0332,-387.0669 495.6251,-319.073 469,-277 449.0134,-245.4172 412.9866,-272.5828 393,-241 370.7782,-205.8851 351.4444,-147.5 393,-147.5"/>
<polygon fill="#000000" stroke="#000000" points="478.944,-396.4433 468.5245,-393.0252 473.972,-396.9717 469,-397.5 469,-397.5 469,-397.5 473.972,-396.9717 469.4755,-401.9748 478.944,-396.4433 478.944,-396.4433"/>
<text text-anchor="start" x="476.228" y="-407.5" font-family="Arial" font-size="10.00" fill="#000000">FOREIGN KEY (server_id) REFERENCES server_list (id)</text>
</g>
</g>
</svg>
