<?xml version="1.0" encoding="UTF-8" standalone="no"?>
<!DOCTYPE svg PUBLIC "-//W3C//DTD SVG 1.1//EN"
 "http://www.w3.org/Graphics/SVG/1.1/DTD/svg11.dtd">
<!-- Generated by graphviz version 2.40.1 (20161225.0304)
 -->
<!-- Title: remote_bmi Pages: 1 -->
<svg width="746pt" height="773pt"
 viewBox="0.00 0.00 746.00 773.00" xmlns="http://www.w3.org/2000/svg" xmlns:xlink="http://www.w3.org/1999/xlink">
<g id="graph0" class="graph" transform="scale(1 1) rotate(0) translate(4 769)">
<title>remote_bmi</title>
<polygon fill="#ffffff" stroke="transparent" points="-4,4 -4,-769 742,-769 742,4 -4,4"/>
<!-- benchmark_log -->
<g id="node1" class="node">
<title>benchmark_log</title>
<polygon fill="#efefef" stroke="transparent" points="269,-686.5 269,-721.5 503,-721.5 503,-686.5 269,-686.5"/>
<polygon fill="none" stroke="#000000" points="269,-686.5 269,-721.5 503,-721.5 503,-686.5 269,-686.5"/>
<text text-anchor="start" x="275.859" y="-699.3" font-family="Arial Bold" font-size="18.00" fill="#000000">benchmark_log</text>
<text text-anchor="start" x="398.8872" y="-699.3" font-family="Arial" font-size="14.00" fill="#000000"> </text>
<text text-anchor="start" x="402.7778" y="-699.3" font-family="Arial" font-size="14.00" fill="#666666">[BASE TABLE]</text>
<polygon fill="none" stroke="#000000" points="269,-656.5 269,-686.5 503,-686.5 503,-656.5 269,-656.5"/>
<text text-anchor="start" x="276" y="-667.9" font-family="Arial" font-size="14.00" fill="#000000">id </text>
<text text-anchor="start" x="290.7798" y="-667.9" font-family="Arial" font-size="14.00" fill="#666666">[char(36)]</text>
<polygon fill="none" stroke="#000000" points="269,-626.5 269,-656.5 503,-656.5 503,-626.5 269,-626.5"/>
<text text-anchor="start" x="276" y="-637.9" font-family="Arial" font-size="14.00" fill="#000000">user_id </text>
<text text-anchor="start" x="325.7882" y="-637.9" font-family="Arial" font-size="14.00" fill="#666666">[char(36)]</text>
<polygon fill="none" stroke="#000000" points="269,-596.5 269,-626.5 503,-626.5 503,-596.5 269,-596.5"/>
<text text-anchor="start" x="276" y="-607.9" font-family="Arial" font-size="14.00" fill="#000000">server_id </text>
<text text-anchor="start" x="337.4488" y="-607.9" font-family="Arial" font-size="14.00" fill="#666666">[char(36)]</text>
<polygon fill="none" stroke="#000000" points="269,-566.5 269,-596.5 503,-596.5 503,-566.5 269,-566.5"/>
<text text-anchor="start" x="276" y="-577.9" font-family="Arial" font-size="14.00" fill="#000000">std_out </text>
<text text-anchor="start" x="325.8022" y="-577.9" font-family="Arial" font-size="14.00" fill="#666666">[text]</text>
<polygon fill="none" stroke="#000000" points="269,-536.5 269,-566.5 503,-566.5 503,-536.5 269,-536.5"/>
<text text-anchor="start" x="276" y="-547.9" font-family="Arial" font-size="14.00" fill="#000000">created_at </text>
<text text-anchor="start" x="346.028" y="-547.9" font-family="Arial" font-size="14.00" fill="#666666">[datetime(3)]</text>
</g>
<!-- server_list -->
<g id="node2" class="node">
<title>server_list</title>
<polygon fill="#efefef" stroke="transparent" points="206,-379.5 206,-414.5 399,-414.5 399,-379.5 206,-379.5"/>
<polygon fill="none" stroke="#000000" points="206,-379.5 206,-414.5 399,-414.5 399,-379.5 206,-379.5"/>
<text text-anchor="start" x="212.8763" y="-392.3" font-family="Arial Bold" font-size="18.00" fill="#000000">server_list</text>
<text text-anchor="start" x="294.8699" y="-392.3" font-family="Arial" font-size="14.00" fill="#000000"> </text>
<text text-anchor="start" x="298.7605" y="-392.3" font-family="Arial" font-size="14.00" fill="#666666">[BASE TABLE]</text>
<polygon fill="none" stroke="#000000" points="206,-349.5 206,-379.5 399,-379.5 399,-349.5 206,-349.5"/>
<text text-anchor="start" x="213" y="-360.9" font-family="Arial" font-size="14.00" fill="#000000">id </text>
<text text-anchor="start" x="227.7798" y="-360.9" font-family="Arial" font-size="14.00" fill="#666666">[char(36)]</text>
<polygon fill="none" stroke="#000000" points="206,-319.5 206,-349.5 399,-349.5 399,-319.5 206,-319.5"/>
<text text-anchor="start" x="213" y="-330.9" font-family="Arial" font-size="14.00" fill="#000000">user_id </text>
<text text-anchor="start" x="262.7882" y="-330.9" font-family="Arial" font-size="14.00" fill="#666666">[char(36)]</text>
<polygon fill="none" stroke="#000000" points="206,-289.5 206,-319.5 399,-319.5 399,-289.5 206,-289.5"/>
<text text-anchor="start" x="213" y="-300.9" font-family="Arial" font-size="14.00" fill="#000000">server_number </text>
<text text-anchor="start" x="311.0112" y="-300.9" font-family="Arial" font-size="14.00" fill="#666666">[int(1)]</text>
<polygon fill="none" stroke="#000000" points="206,-259.5 206,-289.5 399,-289.5 399,-259.5 206,-259.5"/>
<text text-anchor="start" x="213" y="-270.9" font-family="Arial" font-size="14.00" fill="#000000">address </text>
<text text-anchor="start" x="266.6816" y="-270.9" font-family="Arial" font-size="14.00" fill="#666666">[varchar(2048)]</text>
</g>
<!-- benchmark_log&#45;&gt;server_list -->
<g id="edge1" class="edge">
<title>benchmark_log:server_id&#45;&gt;server_list:id</title>
<path fill="none" stroke="#000000" d="M259.043,-610.4121C219.7298,-600.9913 239.6056,-532.6407 269,-494 305.2976,-446.2847 362.7024,-505.7153 399,-458 424.1595,-424.9264 440.5556,-364.5 399,-364.5"/>
<polygon fill="#000000" stroke="#000000" points="259.0592,-610.4138 268.5112,-615.9734 264.0296,-610.9569 269,-611.5 269,-611.5 269,-611.5 264.0296,-610.9569 269.4888,-607.0266 259.0592,-610.4138 259.0592,-610.4138"/>
<text text-anchor="start" x="7.228" y="-621.5" font-family="Arial" font-size="10.00" fill="#000000">FOREIGN KEY (server_id) REFERENCES server_list (id)</text>
</g>
<!-- user -->
<g id="node3" class="node">
<title>user</title>
<polygon fill="#efefef" stroke="transparent" points="313,-102.5 313,-137.5 459,-137.5 459,-102.5 313,-102.5"/>
<polygon fill="none" stroke="#000000" points="313,-102.5 313,-137.5 459,-137.5 459,-102.5 313,-102.5"/>
<text text-anchor="start" x="319.8708" y="-115.3" font-family="Arial Bold" font-size="18.00" fill="#000000">user</text>
<text text-anchor="start" x="354.8754" y="-115.3" font-family="Arial" font-size="14.00" fill="#000000"> </text>
<text text-anchor="start" x="358.766" y="-115.3" font-family="Arial" font-size="14.00" fill="#666666">[BASE TABLE]</text>
<polygon fill="none" stroke="#000000" points="313,-72.5 313,-102.5 459,-102.5 459,-72.5 313,-72.5"/>
<text text-anchor="start" x="320" y="-83.9" font-family="Arial" font-size="14.00" fill="#000000">id </text>
<text text-anchor="start" x="334.7798" y="-83.9" font-family="Arial" font-size="14.00" fill="#666666">[char(36)]</text>
<polygon fill="none" stroke="#000000" points="313,-42.5 313,-72.5 459,-72.5 459,-42.5 313,-42.5"/>
<text text-anchor="start" x="320" y="-53.9" font-family="Arial" font-size="14.00" fill="#000000">name </text>
<text text-anchor="start" x="358.899" y="-53.9" font-family="Arial" font-size="14.00" fill="#666666">[varchar(32)]</text>
</g>
<!-- benchmark_log&#45;&gt;user -->
<g id="edge2" class="edge">
<title>benchmark_log:user_id&#45;&gt;user:id</title>
<path fill="none" stroke="#000000" d="M513.0915,-640.1922C623.9428,-610.5654 579.0013,-87.5 459,-87.5"/>
<polygon fill="#000000" stroke="#000000" points="512.9171,-640.2147 502.4216,-637.0373 507.9585,-640.8574 503,-641.5 503,-641.5 503,-641.5 507.9585,-640.8574 503.5784,-645.9627 512.9171,-640.2147 512.9171,-640.2147"/>
<text text-anchor="start" x="510.445" y="-651.5" font-family="Arial" font-size="10.00" fill="#000000">FOREIGN KEY (user_id) REFERENCES user (id)</text>
</g>
<!-- server_list&#45;&gt;user -->
<g id="edge3" class="edge">
<title>server_list:user_id&#45;&gt;user:id</title>
<path fill="none" stroke="#000000" d="M409.4083,-333.3195C447.734,-323.6803 425.7845,-257.2487 399,-217 376.0439,-182.5043 335.9561,-215.4957 313,-181 289.9777,-146.4047 271.4444,-87.5 313,-87.5"/>
<polygon fill="#000000" stroke="#000000" points="408.9363,-333.3729 398.4928,-330.0287 403.9681,-333.9365 399,-334.5 399,-334.5 399,-334.5 403.9681,-333.9365 399.5072,-338.9713 408.9363,-333.3729 408.9363,-333.3729"/>
<text text-anchor="start" x="406.445" y="-344.5" font-family="Arial" font-size="10.00" fill="#000000">FOREIGN KEY (user_id) REFERENCES user (id)</text>
</g>
</g>
</svg>
