<?xml version="1.0" encoding="UTF-8" standalone="no"?>
<!DOCTYPE svg PUBLIC "-//W3C//DTD SVG 1.1//EN"
 "http://www.w3.org/Graphics/SVG/1.1/DTD/svg11.dtd">
<!-- Generated by graphviz version 2.40.1 (20161225.0304)
 -->
<!-- Title: server_list Pages: 1 -->
<svg width="725pt" height="779pt"
 viewBox="0.00 0.00 725.00 779.00" xmlns="http://www.w3.org/2000/svg" xmlns:xlink="http://www.w3.org/1999/xlink">
<g id="graph0" class="graph" transform="scale(1 1) rotate(0) translate(4 775)">
<title>server_list</title>
<polygon fill="#ffffff" stroke="transparent" points="-4,4 -4,-775 721,-775 721,4 -4,4"/>
<!-- server_list -->
<g id="node1" class="node">
<title>server_list</title>
<polygon fill="#efefef" stroke="transparent" points="289,-382.5 289,-417.5 482,-417.5 482,-382.5 289,-382.5"/>
<polygon fill="none" stroke="#000000" points="289,-382.5 289,-417.5 482,-417.5 482,-382.5 289,-382.5"/>
<text text-anchor="start" x="295.8763" y="-395.3" font-family="Arial Bold" font-size="18.00" fill="#000000">server_list</text>
<text text-anchor="start" x="377.8699" y="-395.3" font-family="Arial" font-size="14.00" fill="#000000"> </text>
<text text-anchor="start" x="381.7605" y="-395.3" font-family="Arial" font-size="14.00" fill="#666666">[BASE TABLE]</text>
<polygon fill="none" stroke="#000000" points="289,-352.5 289,-382.5 482,-382.5 482,-352.5 289,-352.5"/>
<text text-anchor="start" x="296" y="-363.9" font-family="Arial" font-size="14.00" fill="#000000">id </text>
<text text-anchor="start" x="310.7798" y="-363.9" font-family="Arial" font-size="14.00" fill="#666666">[char(36)]</text>
<polygon fill="none" stroke="#000000" points="289,-322.5 289,-352.5 482,-352.5 482,-322.5 289,-322.5"/>
<text text-anchor="start" x="296" y="-333.9" font-family="Arial" font-size="14.00" fill="#000000">user_id </text>
<text text-anchor="start" x="345.7882" y="-333.9" font-family="Arial" font-size="14.00" fill="#666666">[char(36)]</text>
<polygon fill="none" stroke="#000000" points="289,-292.5 289,-322.5 482,-322.5 482,-292.5 289,-292.5"/>
<text text-anchor="start" x="296" y="-303.9" font-family="Arial" font-size="14.00" fill="#000000">server_number </text>
<text text-anchor="start" x="394.0112" y="-303.9" font-family="Arial" font-size="14.00" fill="#666666">[int(1)]</text>
<polygon fill="none" stroke="#000000" points="289,-262.5 289,-292.5 482,-292.5 482,-262.5 289,-262.5"/>
<text text-anchor="start" x="296" y="-273.9" font-family="Arial" font-size="14.00" fill="#000000">address </text>
<text text-anchor="start" x="349.6816" y="-273.9" font-family="Arial" font-size="14.00" fill="#666666">[varchar(2048)]</text>
<polygon fill="none" stroke="#000000" stroke-width="3" points="287,-261.5 287,-419.5 483,-419.5 483,-261.5 287,-261.5"/>
</g>
<!-- user -->
<g id="node3" class="node">
<title>user</title>
<polygon fill="#efefef" stroke="transparent" points="313,-102.5 313,-137.5 459,-137.5 459,-102.5 313,-102.5"/>
<polygon fill="none" stroke="#000000" points="313,-102.5 313,-137.5 459,-137.5 459,-102.5 313,-102.5"/>
<text text-anchor="start" x="319.8708" y="-115.3" font-family="Arial Bold" font-size="18.00" fill="#000000">user</text>
<text text-anchor="start" x="354.8754" y="-115.3" font-family="Arial" font-size="14.00" fill="#000000"> </text>
<text text-anchor="start" x="358.766" y="-115.3" font-family="Arial" font-size="14.00" fill="#666666">[BASE TABLE]</text>
<polygon fill="none" stroke="#000000" points="313,-72.5 313,-102.5 459,-102.5 459,-72.5 313,-72.5"/>
<text text-anchor="start" x="320" y="-83.9" font-family="Arial" font-size="14.00" fill="#000000">id </text>
<text text-anchor="start" x="334.7798" y="-83.9" font-family="Arial" font-size="14.00" fill="#666666">[char(36)]</text>
<polygon fill="none" stroke="#000000" points="313,-42.5 313,-72.5 459,-72.5 459,-42.5 313,-42.5"/>
<text text-anchor="start" x="320" y="-53.9" font-family="Arial" font-size="14.00" fill="#000000">name </text>
<text text-anchor="start" x="358.899" y="-53.9" font-family="Arial" font-size="14.00" fill="#666666">[varchar(32)]</text>
</g>
<!-- server_list&#45;&gt;user -->
<g id="edge2" class="edge">
<title>server_list:user_id&#45;&gt;user:id</title>
<path fill="none" stroke="#000000" d="M491.9729,-336.4314C532.7755,-326.8907 513.3911,-255.7823 482,-217 433.6837,-157.3074 361.3163,-240.6926 313,-181 286.8554,-148.6995 271.4444,-87.5 313,-87.5"/>
<polygon fill="#000000" stroke="#000000" points="491.9431,-336.4345 481.5205,-333.0256 486.9715,-336.9672 482,-337.5 482,-337.5 482,-337.5 486.9715,-336.9672 482.4795,-341.9744 491.9431,-336.4345 491.9431,-336.4345"/>
<text text-anchor="start" x="489.445" y="-347.5" font-family="Arial" font-size="10.00" fill="#000000">FOREIGN KEY (user_id) REFERENCES user (id)</text>
</g>
<!-- benchmark_log -->
<g id="node2" class="node">
<title>benchmark_log</title>
<polygon fill="#efefef" stroke="transparent" points="269,-692.5 269,-727.5 503,-727.5 503,-692.5 269,-692.5"/>
<polygon fill="none" stroke="#000000" points="269,-692.5 269,-727.5 503,-727.5 503,-692.5 269,-692.5"/>
<text text-anchor="start" x="275.859" y="-705.3" font-family="Arial Bold" font-size="18.00" fill="#000000">benchmark_log</text>
<text text-anchor="start" x="398.8872" y="-705.3" font-family="Arial" font-size="14.00" fill="#000000"> </text>
<text text-anchor="start" x="402.7778" y="-705.3" font-family="Arial" font-size="14.00" fill="#666666">[BASE TABLE]</text>
<polygon fill="none" stroke="#000000" points="269,-662.5 269,-692.5 503,-692.5 503,-662.5 269,-662.5"/>
<text text-anchor="start" x="276" y="-673.9" font-family="Arial" font-size="14.00" fill="#000000">id </text>
<text text-anchor="start" x="290.7798" y="-673.9" font-family="Arial" font-size="14.00" fill="#666666">[char(36)]</text>
<polygon fill="none" stroke="#000000" points="269,-632.5 269,-662.5 503,-662.5 503,-632.5 269,-632.5"/>
<text text-anchor="start" x="276" y="-643.9" font-family="Arial" font-size="14.00" fill="#000000">user_id </text>
<text text-anchor="start" x="325.7882" y="-643.9" font-family="Arial" font-size="14.00" fill="#666666">[char(36)]</text>
<polygon fill="none" stroke="#000000" points="269,-602.5 269,-632.5 503,-632.5 503,-602.5 269,-602.5"/>
<text text-anchor="start" x="276" y="-613.9" font-family="Arial" font-size="14.00" fill="#000000">server_id </text>
<text text-anchor="start" x="337.4488" y="-613.9" font-family="Arial" font-size="14.00" fill="#666666">[char(36)]</text>
<polygon fill="none" stroke="#000000" points="269,-572.5 269,-602.5 503,-602.5 503,-572.5 269,-572.5"/>
<text text-anchor="start" x="276" y="-583.9" font-family="Arial" font-size="14.00" fill="#000000">std_out </text>
<text text-anchor="start" x="325.8022" y="-583.9" font-family="Arial" font-size="14.00" fill="#666666">[text]</text>
<polygon fill="none" stroke="#000000" points="269,-542.5 269,-572.5 503,-572.5 503,-542.5 269,-542.5"/>
<text text-anchor="start" x="276" y="-553.9" font-family="Arial" font-size="14.00" fill="#000000">created_at </text>
<text text-anchor="start" x="346.028" y="-553.9" font-family="Arial" font-size="14.00" fill="#666666">[datetime]</text>
</g>
<!-- benchmark_log&#45;&gt;server_list -->
<g id="edge1" class="edge">
<title>benchmark_log:server_id&#45;&gt;server_list:id</title>
<path fill="none" stroke="#000000" d="M259.0142,-616.3889C219.4562,-606.7719 237.6606,-537.0807 269,-500 330.9743,-426.6722 420.0257,-537.3278 482,-464 509.6849,-431.2433 524.8889,-367.5 482,-367.5"/>
<polygon fill="#000000" stroke="#000000" points="259.0613,-616.3941 268.5023,-621.9724 264.0307,-616.9471 269,-617.5 269,-617.5 269,-617.5 264.0307,-616.9471 269.4977,-613.0276 259.0613,-616.3941 259.0613,-616.3941"/>
<text text-anchor="start" x="7.228" y="-627.5" font-family="Arial" font-size="10.00" fill="#000000">FOREIGN KEY (server_id) REFERENCES server_list (id)</text>
</g>
</g>
</svg>
