<?xml version="1.0" encoding="UTF-8" standalone="no"?>
<!DOCTYPE svg PUBLIC "-//W3C//DTD SVG 1.1//EN"
 "http://www.w3.org/Graphics/SVG/1.1/DTD/svg11.dtd">
<!-- Generated by graphviz version 2.40.1 (20161225.0304)
 -->
<!-- Title: user Pages: 1 -->
<svg width="626pt" height="502pt"
 viewBox="0.00 0.00 625.50 502.00" xmlns="http://www.w3.org/2000/svg" xmlns:xlink="http://www.w3.org/1999/xlink">
<g id="graph0" class="graph" transform="scale(1 1) rotate(0) translate(4 498)">
<title>user</title>
<polygon fill="#ffffff" stroke="transparent" points="-4,4 -4,-498 621.5,-498 621.5,4 -4,4"/>
<!-- user -->
<g id="node1" class="node">
<title>user</title>
<polygon fill="#efefef" stroke="transparent" points="246,-105.5 246,-140.5 392,-140.5 392,-105.5 246,-105.5"/>
<polygon fill="none" stroke="#000000" points="246,-105.5 246,-140.5 392,-140.5 392,-105.5 246,-105.5"/>
<text text-anchor="start" x="252.8708" y="-118.3" font-family="Arial Bold" font-size="18.00" fill="#000000">user</text>
<text text-anchor="start" x="287.8754" y="-118.3" font-family="Arial" font-size="14.00" fill="#000000"> </text>
<text text-anchor="start" x="291.766" y="-118.3" font-family="Arial" font-size="14.00" fill="#666666">[BASE TABLE]</text>
<polygon fill="none" stroke="#000000" points="246,-75.5 246,-105.5 392,-105.5 392,-75.5 246,-75.5"/>
<text text-anchor="start" x="253" y="-86.9" font-family="Arial" font-size="14.00" fill="#000000">id </text>
<text text-anchor="start" x="267.7798" y="-86.9" font-family="Arial" font-size="14.00" fill="#666666">[char(36)]</text>
<polygon fill="none" stroke="#000000" points="246,-45.5 246,-75.5 392,-75.5 392,-45.5 246,-45.5"/>
<text text-anchor="start" x="253" y="-56.9" font-family="Arial" font-size="14.00" fill="#000000">name </text>
<text text-anchor="start" x="291.899" y="-56.9" font-family="Arial" font-size="14.00" fill="#666666">[varchar(32)]</text>
<polygon fill="none" stroke="#000000" stroke-width="3" points="244.5,-44.5 244.5,-142.5 393.5,-142.5 393.5,-44.5 244.5,-44.5"/>
</g>
<!-- benchmark_log -->
<g id="node2" class="node">
<title>benchmark_log</title>
<polygon fill="#efefef" stroke="transparent" points="43,-415.5 43,-450.5 277,-450.5 277,-415.5 43,-415.5"/>
<polygon fill="none" stroke="#000000" points="43,-415.5 43,-450.5 277,-450.5 277,-415.5 43,-415.5"/>
<text text-anchor="start" x="49.859" y="-428.3" font-family="Arial Bold" font-size="18.00" fill="#000000">benchmark_log</text>
<text text-anchor="start" x="172.8872" y="-428.3" font-family="Arial" font-size="14.00" fill="#000000"> </text>
<text text-anchor="start" x="176.7778" y="-428.3" font-family="Arial" font-size="14.00" fill="#666666">[BASE TABLE]</text>
<polygon fill="none" stroke="#000000" points="43,-385.5 43,-415.5 277,-415.5 277,-385.5 43,-385.5"/>
<text text-anchor="start" x="50" y="-396.9" font-family="Arial" font-size="14.00" fill="#000000">id </text>
<text text-anchor="start" x="64.7798" y="-396.9" font-family="Arial" font-size="14.00" fill="#666666">[char(36)]</text>
<polygon fill="none" stroke="#000000" points="43,-355.5 43,-385.5 277,-385.5 277,-355.5 43,-355.5"/>
<text text-anchor="start" x="50" y="-366.9" font-family="Arial" font-size="14.00" fill="#000000">user_id </text>
<text text-anchor="start" x="99.7882" y="-366.9" font-family="Arial" font-size="14.00" fill="#666666">[char(36)]</text>
<polygon fill="none" stroke="#000000" points="43,-325.5 43,-355.5 277,-355.5 277,-325.5 43,-325.5"/>
<text text-anchor="start" x="50" y="-336.9" font-family="Arial" font-size="14.00" fill="#000000">server_id </text>
<text text-anchor="start" x="111.4488" y="-336.9" font-family="Arial" font-size="14.00" fill="#666666">[char(36)]</text>
<polygon fill="none" stroke="#000000" points="43,-295.5 43,-325.5 277,-325.5 277,-295.5 43,-295.5"/>
<text text-anchor="start" x="50" y="-306.9" font-family="Arial" font-size="14.00" fill="#000000">std_out </text>
<text text-anchor="start" x="99.8022" y="-306.9" font-family="Arial" font-size="14.00" fill="#666666">[text]</text>
<polygon fill="none" stroke="#000000" points="43,-265.5 43,-295.5 277,-295.5 277,-265.5 43,-265.5"/>
<text text-anchor="start" x="50" y="-276.9" font-family="Arial" font-size="14.00" fill="#000000">created_at </text>
<text text-anchor="start" x="120.028" y="-276.9" font-family="Arial" font-size="14.00" fill="#666666">[datetime(3)]</text>
</g>
<!-- benchmark_log&#45;&gt;user -->
<g id="edge1" class="edge">
<title>benchmark_log:user_id&#45;&gt;user:id</title>
<path fill="none" stroke="#000000" d="M287.1203,-369.692C337.7777,-360.8319 298.5222,-280.9766 277,-223 269.6518,-203.2053 253.3482,-206.7947 246,-187 231.074,-146.7922 203.1111,-90.5 246,-90.5"/>
<polygon fill="#000000" stroke="#000000" points="286.9683,-369.704 276.6418,-366.0143 281.9841,-370.102 277,-370.5 277,-370.5 277,-370.5 281.9841,-370.102 277.3582,-374.9857 286.9683,-369.704 286.9683,-369.704"/>
<text text-anchor="start" x="284.445" y="-380.5" font-family="Arial" font-size="10.00" fill="#000000">FOREIGN KEY (user_id) REFERENCES user (id)</text>
</g>
<!-- server_list -->
<g id="node3" class="node">
<title>server_list</title>
<polygon fill="#efefef" stroke="transparent" points="382,-400.5 382,-435.5 575,-435.5 575,-400.5 382,-400.5"/>
<polygon fill="none" stroke="#000000" points="382,-400.5 382,-435.5 575,-435.5 575,-400.5 382,-400.5"/>
<text text-anchor="start" x="388.8763" y="-413.3" font-family="Arial Bold" font-size="18.00" fill="#000000">server_list</text>
<text text-anchor="start" x="470.8699" y="-413.3" font-family="Arial" font-size="14.00" fill="#000000"> </text>
<text text-anchor="start" x="474.7605" y="-413.3" font-family="Arial" font-size="14.00" fill="#666666">[BASE TABLE]</text>
<polygon fill="none" stroke="#000000" points="382,-370.5 382,-400.5 575,-400.5 575,-370.5 382,-370.5"/>
<text text-anchor="start" x="389" y="-381.9" font-family="Arial" font-size="14.00" fill="#000000">id </text>
<text text-anchor="start" x="403.7798" y="-381.9" font-family="Arial" font-size="14.00" fill="#666666">[char(36)]</text>
<polygon fill="none" stroke="#000000" points="382,-340.5 382,-370.5 575,-370.5 575,-340.5 382,-340.5"/>
<text text-anchor="start" x="389" y="-351.9" font-family="Arial" font-size="14.00" fill="#000000">user_id </text>
<text text-anchor="start" x="438.7882" y="-351.9" font-family="Arial" font-size="14.00" fill="#666666">[char(36)]</text>
<polygon fill="none" stroke="#000000" points="382,-310.5 382,-340.5 575,-340.5 575,-310.5 382,-310.5"/>
<text text-anchor="start" x="389" y="-321.9" font-family="Arial" font-size="14.00" fill="#000000">server_number </text>
<text text-anchor="start" x="487.0112" y="-321.9" font-family="Arial" font-size="14.00" fill="#666666">[int(1)]</text>
<polygon fill="none" stroke="#000000" points="382,-280.5 382,-310.5 575,-310.5 575,-280.5 382,-280.5"/>
<text text-anchor="start" x="389" y="-291.9" font-family="Arial" font-size="14.00" fill="#000000">address </text>
<text text-anchor="start" x="442.6816" y="-291.9" font-family="Arial" font-size="14.00" fill="#666666">[varchar(2048)]</text>
</g>
<!-- server_list&#45;&gt;user -->
<g id="edge2" class="edge">
<title>server_list:user_id&#45;&gt;user:id</title>
<path fill="none" stroke="#000000" d="M371.9935,-354.7398C279.141,-339.1963 506.1784,-90.5 392,-90.5"/>
<polygon fill="#000000" stroke="#000000" points="372.0287,-354.7424 381.6591,-359.9871 377.0144,-355.1212 382,-355.5 382,-355.5 382,-355.5 377.0144,-355.1212 382.3409,-351.0129 372.0287,-354.7424 372.0287,-354.7424"/>
<text text-anchor="start" x="330.695" y="-339.5" font-family="Arial" font-size="10.00" fill="#000000">FOREIGN KEY (user_id) REFERENCES user (id)</text>
</g>
</g>
</svg>
